<svg width="50" height="67" viewBox="0 0 50 67" fill="none" xmlns="http://www.w3.org/2000/svg">
<path d="M21.305 0.688159L45.5196 14.0699L45.4501 39.6105L48.9391 41.637L49.0783 65.5355L0.591039 41.1478V16.7951L21.305 0.688159Z" fill="white"/>
<path d="M25.4813 53.2455L25.4736 42.3286L48.3215 53.7847V64.8848L25.4813 53.2455ZM24.1608 52.5143L13.2973 46.978V23.9689L24.1608 29.5313V52.5143ZM1.32053 40.875L1.30634 17.8288L11.9916 23.3005L11.992 23.3007V46.3134H11.9916L1.32053 40.875ZM21.4598 1.37501L31.7329 7.0562V7.05641L12.5569 22.3121L1.71869 16.7706L21.4598 1.37501ZM24.7753 28.5592L13.7032 22.898L32.8433 7.67032H32.8435L44.3468 14.0323L24.7753 28.5592ZM44.7548 38.8066L33.4222 33.004H33.422V23.592H33.4222L44.7548 15.1788V38.8066ZM32.1167 32.3358L25.9187 29.1627L32.1167 24.5613V32.3358ZM48.3215 41.9017V52.5227L25.4736 41.0668L25.4661 30.2003L48.3215 41.9017ZM46.0601 39.4748V13.6817L21.3217 0L0 16.6265L0.00104442 17.1608L0.0152348 41.4774L24.176 53.7896V53.8481L49.627 66.8182V41.301L46.0601 39.4748Z" fill="#333333"/>
<path d="M21.305 0.688159L45.5196 14.0699L45.4501 39.6105L48.9391 41.637L49.0783 65.5355L0.591039 41.1478V16.7951L21.305 0.688159Z" fill="#FFBC2D"/>
<path d="M25.4813 53.2455L25.4736 42.3286L48.3215 53.7847V64.8848L25.4813 53.2455ZM24.1608 52.5143L13.2973 46.978V23.9689L24.1608 29.5313V52.5143ZM1.32053 40.875L1.30634 17.8288L11.9916 23.3005L11.992 23.3007V46.3134H11.9916L1.32053 40.875ZM21.4598 1.37501L31.7329 7.0562V7.05641L12.5569 22.3121L1.71869 16.7706L21.4598 1.37501ZM24.7753 28.5592L13.7032 22.898L32.8433 7.67032H32.8435L44.3468 14.0323L24.7753 28.5592ZM44.7548 38.8066L33.4222 33.004H33.422V23.592H33.4222L44.7548 15.1788V38.8066ZM32.1167 32.3358L25.9187 29.1627L32.1167 24.5613V32.3358ZM48.3215 41.9017V52.5227L25.4736 41.0668L25.4661 30.2003L48.3215 41.9017ZM46.0601 39.4748V13.6817L21.3217 0L0 16.6265L0.00104442 17.1608L0.0152348 41.4774L24.176 53.7896V53.8481L49.627 66.8182V41.301L46.0601 39.4748Z" fill="#333333"/>
<path d="M0.591039 16.7951L24.8512 29.229L45.2645 39.6908L48.9391 41.637L49.0783 65.5355L0.591039 41.1478V16.7951Z" fill="#FF3D3D"/>
<path d="M25.4813 53.2455L25.4736 42.3286L48.3215 53.7847V64.8848L25.4813 53.2455ZM24.1608 52.5143L13.2973 46.978V23.9689L24.1608 29.5313V52.5143ZM1.32053 40.875L1.30634 17.8288L11.9916 23.3005L11.992 23.3007V46.3134H11.9916L1.32053 40.875ZM21.4598 1.37501L31.7329 7.0562V7.05641L12.5569 22.3121L1.71869 16.7706L21.4598 1.37501ZM24.7753 28.5592L13.7032 22.898L32.8433 7.67032H32.8435L44.3468 14.0323L24.7753 28.5592ZM44.7548 38.8066L33.4222 33.004H33.422V23.592H33.4222L44.7548 15.1788V38.8066ZM32.1167 32.3358L25.9187 29.1627L32.1167 24.5613V32.3358ZM48.3215 41.9017V52.5227L25.4736 41.0668L25.4661 30.2003L48.3215 41.9017ZM46.0601 39.4748V13.6817L21.3217 0L0 16.6265L0.00104442 17.1608L0.0152348 41.4774L24.176 53.7896V53.8481L49.627 66.8182V41.301L46.0601 39.4748Z" fill="#333333"/>
<path d="M0.591039 16.7951L24.8512 29.229L24.9903 53.1275L0.591039 41.1478V16.7951Z" fill="#039BE5"/>
<path d="M25.4813 53.2455L25.4736 42.3286L48.3215 53.7847V64.8848L25.4813 53.2455ZM24.1608 52.5143L13.2973 46.978V23.9689L24.1608 29.5313V52.5143ZM1.32053 40.875L1.30634 17.8288L11.9916 23.3005L11.992 23.3007V46.3134H11.9916L1.32053 40.875ZM21.4598 1.37501L31.7329 7.0562V7.05641L12.5569 22.3121L1.71869 16.7706L21.4598 1.37501ZM24.7753 28.5592L13.7032 22.898L32.8433 7.67032H32.8435L44.3468 14.0323L24.7753 28.5592ZM44.7548 38.8066L33.4222 33.004H33.422V23.592H33.4222L44.7548 15.1788V38.8066ZM32.1167 32.3358L25.9187 29.1627L32.1167 24.5613V32.3358ZM48.3215 41.9017V52.5227L25.4736 41.0668L25.4661 30.2003L48.3215 41.9017ZM46.0601 39.4748V13.6817L21.3217 0L0 16.6265L0.00104442 17.1608L0.0152348 41.4774L24.176 53.7896V53.8481L49.627 66.8182V41.301L46.0601 39.4748Z" fill="#333333"/>
<path d="M47.0805 18.0229H48.4772C48.7636 18.0229 49.0097 18.066 49.2155 18.1521C49.423 18.2382 49.5824 18.3657 49.6939 18.5346C49.8054 18.7034 49.8611 18.9111 49.8611 19.1574C49.8611 19.359 49.8268 19.5322 49.7582 19.6769C49.6913 19.8199 49.5962 19.9397 49.4727 20.0362C49.3509 20.1309 49.2077 20.2067 49.0431 20.2636L48.7988 20.3928H47.5847L47.5795 19.788H48.4824C48.6178 19.788 48.7302 19.7639 48.8193 19.7157C48.9085 19.6674 48.9754 19.6002 49.02 19.5141C49.0663 19.428 49.0894 19.328 49.0894 19.2143C49.0894 19.0937 49.0671 18.9895 49.0225 18.9016C48.978 18.8137 48.9102 18.7465 48.8193 18.7C48.7285 18.6535 48.6144 18.6302 48.4772 18.6302H47.8522V21.7858H47.0805V18.0229ZM49.1743 21.7858L48.3203 20.1085L49.1357 20.1033L50 21.7496V21.7858H49.1743Z" fill="white"/>
<path d="M49.0997 23.3158H49.8688V25.802C49.8688 26.0915 49.8071 26.3353 49.6836 26.5334C49.5619 26.7316 49.393 26.8806 49.1769 26.9805C48.9625 27.0805 48.7156 27.1304 48.4361 27.1304C48.1566 27.1304 47.9079 27.0805 47.6901 26.9805C47.4741 26.8806 47.3043 26.7316 47.1808 26.5334C47.0591 26.3353 46.9982 26.0915 46.9982 25.802V23.3158H47.7699V25.802C47.7699 25.9709 47.7964 26.1087 47.8496 26.2155C47.9028 26.3224 47.9791 26.4008 48.0785 26.4507C48.1797 26.5007 48.2989 26.5257 48.4361 26.5257C48.5767 26.5257 48.6959 26.5007 48.7936 26.4507C48.8931 26.4008 48.9685 26.3224 49.02 26.2155C49.0731 26.1087 49.0997 25.9709 49.0997 25.802V23.3158Z" fill="white"/>
<path d="M49.0946 31.387C49.0946 31.3198 49.0843 31.2595 49.0637 31.2061C49.0448 31.151 49.0088 31.101 48.9557 31.0562C48.9025 31.0097 48.8279 30.964 48.7319 30.9192C48.6359 30.8744 48.5115 30.8279 48.3589 30.7797C48.1891 30.7245 48.0279 30.6625 47.8753 30.5936C47.7244 30.5247 47.5907 30.4445 47.4741 30.3532C47.3592 30.2602 47.2683 30.1525 47.2014 30.0302C47.1362 29.9078 47.1037 29.7657 47.1037 29.6037C47.1037 29.447 47.1379 29.3048 47.2065 29.1773C47.2751 29.0481 47.3712 28.9378 47.4946 28.8465C47.6181 28.7535 47.7639 28.682 47.9319 28.632C48.1017 28.582 48.2877 28.557 48.4901 28.557C48.7662 28.557 49.0071 28.607 49.2129 28.7069C49.4187 28.8069 49.5782 28.9438 49.6913 29.1179C49.8062 29.2919 49.8637 29.4909 49.8637 29.7149H49.0971C49.0971 29.6046 49.074 29.5081 49.0277 29.4254C48.9831 29.341 48.9145 29.2747 48.8219 29.2264C48.731 29.1782 48.6161 29.154 48.4772 29.154C48.3435 29.154 48.232 29.1747 48.1428 29.2161C48.0537 29.2557 47.9868 29.31 47.9422 29.3789C47.8976 29.4461 47.8753 29.5219 47.8753 29.6063C47.8753 29.6701 47.8908 29.7278 47.9216 29.7795C47.9542 29.8312 48.0022 29.8794 48.0657 29.9242C48.1291 29.969 48.2071 30.0112 48.2997 30.0508C48.3923 30.0905 48.4995 30.1292 48.6213 30.1671C48.8253 30.2292 49.0045 30.299 49.1589 30.3765C49.3149 30.454 49.4453 30.541 49.5499 30.6375C49.6545 30.734 49.7333 30.8434 49.7865 30.9657C49.8397 31.0881 49.8662 31.2268 49.8662 31.3818C49.8662 31.5455 49.8345 31.692 49.7711 31.8212C49.7076 31.9504 49.6159 32.0598 49.4958 32.1494C49.3758 32.239 49.2326 32.3071 49.0663 32.3536C48.8999 32.4001 48.7139 32.4234 48.5081 32.4234C48.3229 32.4234 48.1403 32.3992 47.9602 32.351C47.7802 32.301 47.6164 32.2261 47.4689 32.1262C47.3231 32.0262 47.2065 31.8987 47.1191 31.7437C47.0316 31.5886 46.9879 31.4051 46.9879 31.1932H47.7621C47.7621 31.3103 47.7802 31.4094 47.8162 31.4904C47.8522 31.5714 47.9028 31.6368 47.9679 31.6868C48.0348 31.7368 48.1137 31.7729 48.2046 31.7953C48.2972 31.8177 48.3983 31.8289 48.5081 31.8289C48.6419 31.8289 48.7516 31.81 48.8373 31.7721C48.9248 31.7342 48.9891 31.6816 49.0303 31.6144C49.0731 31.5472 49.0946 31.4714 49.0946 31.387Z" fill="white"/>
<path d="M49.0946 36.6799C49.0946 36.6127 49.0843 36.5524 49.0637 36.499C49.0448 36.4439 49.0088 36.3939 48.9557 36.3491C48.9025 36.3026 48.8279 36.2569 48.7319 36.2121C48.6359 36.1673 48.5115 36.1208 48.3589 36.0726C48.1891 36.0175 48.0279 35.9554 47.8753 35.8865C47.7244 35.8176 47.5907 35.7375 47.4741 35.6462C47.3592 35.5531 47.2683 35.4454 47.2014 35.3231C47.1362 35.2008 47.1037 35.0586 47.1037 34.8967C47.1037 34.7399 47.1379 34.5977 47.2065 34.4702C47.2751 34.341 47.3712 34.2307 47.4946 34.1394C47.6181 34.0464 47.7639 33.9749 47.9319 33.9249C48.1017 33.875 48.2877 33.85 48.4901 33.85C48.7662 33.85 49.0071 33.8999 49.2129 33.9999C49.4187 34.0998 49.5782 34.2368 49.6913 34.4108C49.8062 34.5848 49.8637 34.7838 49.8637 35.0078H49.0971C49.0971 34.8975 49.074 34.801 49.0277 34.7183C48.9831 34.6339 48.9145 34.5676 48.8219 34.5193C48.731 34.4711 48.6161 34.447 48.4772 34.447C48.3435 34.447 48.232 34.4677 48.1428 34.509C48.0537 34.5486 47.9868 34.6029 47.9422 34.6718C47.8976 34.739 47.8753 34.8148 47.8753 34.8993C47.8753 34.963 47.8908 35.0207 47.9216 35.0724C47.9542 35.1241 48.0022 35.1723 48.0657 35.2171C48.1291 35.2619 48.2071 35.3041 48.2997 35.3438C48.3923 35.3834 48.4995 35.4222 48.6213 35.4601C48.8253 35.5221 49.0045 35.5919 49.1589 35.6694C49.3149 35.7469 49.4453 35.834 49.5499 35.9304C49.6545 36.0269 49.7333 36.1363 49.7865 36.2587C49.8397 36.381 49.8662 36.5197 49.8662 36.6748C49.8662 36.8384 49.8345 36.9849 49.7711 37.1141C49.7076 37.2433 49.6159 37.3527 49.4958 37.4423C49.3758 37.5319 49.2326 37.6 49.0663 37.6465C48.8999 37.693 48.7139 37.7163 48.5081 37.7163C48.3229 37.7163 48.1403 37.6922 47.9602 37.6439C47.7802 37.594 47.6164 37.519 47.4689 37.4191C47.3231 37.3191 47.2065 37.1916 47.1191 37.0366C47.0316 36.8815 46.9879 36.698 46.9879 36.4861H47.7621C47.7621 36.6033 47.7802 36.7023 47.8162 36.7833C47.8522 36.8643 47.9028 36.9298 47.9679 36.9797C48.0348 37.0297 48.1137 37.0659 48.2046 37.0883C48.2972 37.1107 48.3983 37.1219 48.5081 37.1219C48.6419 37.1219 48.7516 37.1029 48.8373 37.065C48.9248 37.0271 48.9891 36.9746 49.0303 36.9074C49.0731 36.8402 49.0946 36.7644 49.0946 36.6799Z" fill="white"/>
</svg>
